<svg xmlns="http://www.w3.org/2000/svg" xmlns:xlink="http://www.w3.org/1999/xlink" viewBox="0 0 378.51 96.69"><defs><style>.cls-1{fill:none;}.cls-2{clip-path:url(#clip-path);}.cls-3{fill:#136074;}.cls-4{fill:#2fb5cd;}</style><clipPath id="clip-path" transform="translate(0 0)"><rect class="cls-1" width="378.52" height="96.69"/></clipPath></defs><g id="Layer_2" data-name="Layer 2"><g id="Layer_1-2" data-name="Layer 1"><g id="Group_18" data-name="Group 18"><g class="cls-2"><g id="Group_2" data-name="Group 2"><g id="Group_1" data-name="Group 1"><path id="Path_1" data-name="Path 1" class="cls-3" d="M47.91,66.45c.32,3.06,1,6.7,3.38,8.56l11.8.71s8.28-.35,15.3,8.36A47.22,47.22,0,1,0,0,46.76C0,47.38,0,48,0,48.6A47.24,47.24,0,0,0,47.23,95.83h.09L43.9,90.75a26.27,26.27,0,0,0-2-2.57c-1.68-2-5.33-7.87-3.66-21.12a33.1,33.1,0,0,1,.69-3.68c.92-3.72,3.19-13.86,2.32-19.49,0,0-4.83,2.76-6.17-4.75,0,0-1.88-8.94,2.95-10.29,0,0,6.62-1.87,7.33,5.28,0,0,19.59-1.34,27.55-14.4,0,0,3.76,4.47,0,12.7a8.46,8.46,0,0,0,0,9.12l1.67,3.58s2.62,4.12-4.53,5.19v3s1.16,2-.36,2.69c0,0,.18,2.05-1.52,2.23h-.53S69,66.77,61.3,66.06c0,0-8-1.52-11.18-5.9,0,0-1.91-1.16-2.1.29a44.49,44.49,0,0,0-.11,6" transform="translate(0 0)"/></g></g></g><g id="Group_3" data-name="Group 3"><path id="Path_3" data-name="Path 3" class="cls-3" d="M114.26,50.75l-12-49.42H116.1l6.38,33.12,7.78-31.93h11.93L150,34.45l6.29-33.11h13.41l-12.3,49.42h-13.7L136,19.48l-7.78,31.27Z" transform="translate(0 0)"/></g><g class="cls-2"><g id="Group_5" data-name="Group 5"><g id="Group_4" data-name="Group 4"><path id="Path_4" data-name="Path 4" class="cls-3" d="M197.75,51.93A26.67,26.67,0,0,1,187.49,50a23.93,23.93,0,0,1-8.15-5.45A25.12,25.12,0,0,1,174,36.3,27.27,27.27,0,0,1,172,25.93,27.27,27.27,0,0,1,174,15.56a24.69,24.69,0,0,1,5.37-8.22,24.16,24.16,0,0,1,8.15-5.41,28.24,28.24,0,0,1,20.52,0,24.65,24.65,0,0,1,8.19,5.4,24.33,24.33,0,0,1,5.37,8.23,27.82,27.82,0,0,1,1.89,10.37,27.82,27.82,0,0,1-1.89,10.37A24.35,24.35,0,0,1,208,50a26.71,26.71,0,0,1-10.26,1.92m0-12.29a11.46,11.46,0,0,0,6.63-1.86,11.69,11.69,0,0,0,4.11-5,16.51,16.51,0,0,0,1.41-6.89A16.51,16.51,0,0,0,208.49,19a11.81,11.81,0,0,0-4.11-5,11.38,11.38,0,0,0-6.63-1.85,11.21,11.21,0,0,0-6.56,1.85,12,12,0,0,0-4.14,5,16.21,16.21,0,0,0-1.45,6.89,16,16,0,0,0,1.45,6.89,12,12,0,0,0,4.14,5,11.31,11.31,0,0,0,6.56,1.86" transform="translate(0 0)"/></g></g></g><g id="Group_6" data-name="Group 6"><path id="Path_6" data-name="Path 6" class="cls-3" d="M229.38,50.75l2.3-49.42H244.2l12,21.56L268,1.34h12.59l2.3,49.42H269.61l-1.18-29-8.67,16.9h-7.19l-9.64-16.91-1,29Z" transform="translate(0 0)"/></g><g id="Group_7" data-name="Group 7"><path id="Path_7" data-name="Path 7" class="cls-3" d="M290.73,50.75V1.33h35.56V12.67H303.84V20.3h18.45V31H303.84v8.45h24V50.75Z" transform="translate(0 0)"/></g><g id="Group_8" data-name="Group 8"><path id="Path_8" data-name="Path 8" class="cls-3" d="M365.55,1.33V28.89l-19-27.56H334.66V50.75h13V22.38l19.71,28.37h11.18V1.33Z" transform="translate(0 0)"/></g><g class="cls-2"><g id="Group_10" data-name="Group 10"><g id="Group_9" data-name="Group 9"><path id="Path_9" data-name="Path 9" class="cls-4" d="M127.59,95.7l-2.86-3.36a15.49,15.49,0,0,1-4.25,3,13.68,13.68,0,0,1-6.1,1.21,14.18,14.18,0,0,1-6.75-1.45,9.78,9.78,0,0,1-4.06-3.85,10.44,10.44,0,0,1-1.35-5.21,11.81,11.81,0,0,1,1.63-5.93,19,19,0,0,1,5.71-5.69l-.12-.16a11.38,11.38,0,0,1-2.09-3.49,10.7,10.7,0,0,1-.64-3.67A8.58,8.58,0,0,1,108,62.61a9.17,9.17,0,0,1,3.64-3.35A12.26,12.26,0,0,1,117.4,58a11,11,0,0,1,5.18,1,9.45,9.45,0,0,1,3.1,2.48,16.53,16.53,0,0,1,1.73,2.65l-4.92,3.07A8.73,8.73,0,0,0,120,64.31a4.56,4.56,0,0,0-5.21.33,3.22,3.22,0,0,0-1.06,2.48,4.89,4.89,0,0,0,.67,2.42,11.63,11.63,0,0,0,1.68,2.32l9,10.68,4.82-5.78,4.92,3.91-5.65,6.77,7,8.26Zm-6.89-8.15L113.37,79A12.26,12.26,0,0,0,110,82.35a6.57,6.57,0,0,0-.87,3.33,4.67,4.67,0,0,0,1.37,3.41,5.73,5.73,0,0,0,4.23,1.38,6.65,6.65,0,0,0,3.41-.82,11.36,11.36,0,0,0,2.58-2.1" transform="translate(0 0)"/></g></g></g><path id="Path_11" data-name="Path 11" class="cls-4" d="M145.05,95.7h7.06V59h-7.06Z" transform="translate(0 0)"/><g id="Group_11" data-name="Group 11"><path id="Path_12" data-name="Path 12" class="cls-4" d="M189.56,59v26.1L171.47,59h-7.11V95.7h6.89V69.28L189.51,95.7h6.93V59Z" transform="translate(0 0)"/></g><g id="Group_12" data-name="Group 12"><path id="Path_13" data-name="Path 13" class="cls-4" d="M208.7,59V95.7h7.06V80.78h12.76V74.62H215.76V65.09h17.07V59Z" transform="translate(0 0)"/></g><g id="Group_13" data-name="Group 13"><path id="Path_14" data-name="Path 14" class="cls-4" d="M248.17,59,234,95.7h7.39l3.25-9.3h13.87l3.25,9.3h7.84L255.45,59Zm3.42,7.43,4.93,14.26h-9.91Z" transform="translate(0 0)"/></g><g id="Group_14" data-name="Group 14"><path id="Path_15" data-name="Path 15" class="cls-4" d="M301.36,59v26.1L283.27,59h-7.11V95.7h6.89V69.28L301.31,95.7h6.93V59Z" transform="translate(0 0)"/></g><g id="Group_15" data-name="Group 15"><path id="Path_16" data-name="Path 16" class="cls-4" d="M315.58,59v6.11h12.65V95.7h7.06V65.09h12.65V59Z" transform="translate(0 0)"/></g><g class="cls-2"><g id="Group_17" data-name="Group 17"><g id="Group_16" data-name="Group 16"><path id="Path_17" data-name="Path 17" class="cls-4" d="M350.46,89.81l4.92-4.46c.64.66,1.38,1.37,2.23,2.15a12.42,12.42,0,0,0,3.09,2,9.87,9.87,0,0,0,4.15.83,6.87,6.87,0,0,0,4.89-1.52,4.73,4.73,0,0,0,1.6-3.55,4.21,4.21,0,0,0-2-3.69,20.16,20.16,0,0,0-7-2.25A14.19,14.19,0,0,1,356.75,77a10.32,10.32,0,0,1-4.39-8.48,10,10,0,0,1,1.43-5.2,10.36,10.36,0,0,1,4.31-3.88A15.64,15.64,0,0,1,365.35,58a17.93,17.93,0,0,1,5.1.64A14.2,14.2,0,0,1,374,60.17a11.1,11.1,0,0,1,2.22,1.76c.52.57.89,1,1.11,1.24l-4.65,4.3c-.22-.22-.66-.61-1.31-1.16a10.41,10.41,0,0,0-2.52-1.51,9,9,0,0,0-3.73-.7,5.81,5.81,0,0,0-4.28,1.38,3.92,3.92,0,0,0-1.37,2.75,3.81,3.81,0,0,0,1.59,3.16,16.26,16.26,0,0,0,6.19,2.18,20.49,20.49,0,0,1,5.46,2,10.36,10.36,0,0,1,5.68,9.88,10.08,10.08,0,0,1-1.74,5.75,12,12,0,0,1-4.78,4A15.56,15.56,0,0,1,365,96.69a17.94,17.94,0,0,1-6.53-1.1,17.54,17.54,0,0,1-4.82-2.73,22.15,22.15,0,0,1-3.15-3" transform="translate(0 0)"/></g></g></g></g></g></g></svg>